<svg width="139" height="35" viewBox="0 0 139 35" fill="none" xmlns="http://www.w3.org/2000/svg">
<path d="M32.3094 8.05591C32.3094 8.00323 32.3094 7.95055 32.3094 7.89788C32.3094 7.8452 32.3094 7.8452 32.3094 7.79252C32.3094 7.73985 32.3094 7.68717 32.2563 7.63449C32.2563 7.58182 32.2563 7.58182 32.2563 7.52914C32.2033 7.47646 32.2033 7.37111 32.1502 7.31843C32.0972 7.26575 32.0441 7.1604 31.9911 7.10772L31.938 7.05505C31.885 7.00237 31.8319 7.00237 31.7789 6.94969C31.7789 6.94969 31.7258 6.89702 31.6728 6.89702C31.6197 6.84434 31.5667 6.84434 31.5667 6.79166C31.5136 6.79166 31.5136 6.73899 31.4605 6.73899H31.4075L16.6587 0.786492C16.3404 0.628461 15.969 0.628461 15.5976 0.786492L0.848851 6.73899H0.795798C0.742745 6.73899 0.742745 6.79166 0.689691 6.79166C0.636638 6.79166 0.583585 6.84434 0.583585 6.84434C0.530532 6.84434 0.530532 6.89702 0.477479 6.89702C0.477479 7.00237 0.424426 7.00237 0.371372 7.05505L0.318319 7.10772C0.265266 7.1604 0.212213 7.21308 0.15916 7.31843C0.106106 7.37111 0.106106 7.47646 0.0530532 7.52914C0.0530532 7.58182 0.0530532 7.58182 0.0530532 7.63449C0.0530532 7.68717 0 7.73985 0 7.79252C0 7.8452 0 7.8452 0 7.89788C0 7.95055 0 8.00323 0 8.05591C0 8.10859 0 8.10859 0 8.16126V8.21394L2.17518 23.859C2.22823 24.2277 2.38739 24.5438 2.70571 24.7545L15.2793 34.4997C15.2793 34.4997 15.3324 34.4997 15.3324 34.5524C15.3854 34.5524 15.3854 34.6051 15.4385 34.6051C15.4915 34.6578 15.5446 34.6578 15.5976 34.6578C15.6507 34.6578 15.6507 34.7104 15.7037 34.7104C15.7568 34.7104 15.8099 34.7631 15.8629 34.7631C15.916 34.7631 15.916 34.7631 15.969 34.7631C16.0751 34.7631 16.1282 34.7631 16.2343 34.7631C16.3404 34.7631 16.3934 34.7631 16.4995 34.7631C16.5526 34.7631 16.5526 34.7631 16.6056 34.7631C16.6587 34.7631 16.7118 34.7104 16.7648 34.7104C16.8179 34.7104 16.8179 34.7104 16.8709 34.6578C16.924 34.6578 16.977 34.6051 17.0301 34.6051C17.0831 34.6051 17.0831 34.5524 17.1362 34.5524C17.1362 34.5524 17.1892 34.5524 17.1892 34.4997L29.7628 24.7545C30.0281 24.5438 30.2403 24.2277 30.2934 23.859L32.4686 8.21394V8.16126C32.3094 8.10859 32.3094 8.10859 32.3094 8.05591ZM3.18319 10.6371L14.7488 17.2744V22.3314L3.76678 15.0619L3.18319 10.6371ZM17.5606 24.9652V17.2744L21.964 14.7459L21.0621 27.8098L17.5076 30.549V24.9652H17.5606ZM16.1812 14.9039L11.7778 12.3754L23.6087 6.58095L27.7468 8.26662L16.1812 14.9039ZM16.1812 3.57837L20.1602 5.15868L8.80683 10.6898L4.56257 8.26662L16.1812 3.57837ZM4.29731 18.7493L14.7488 25.7027V30.6016L4.88089 22.9635L4.29731 18.7493ZM24.0331 25.5447L24.8819 13.0602L29.1262 10.6371L27.4285 22.9635L24.0331 25.5447Z" fill="#FF6050"/>
<path d="M87.6968 11.0596C84.5668 11.0596 81.9673 13.588 81.9673 16.7485C81.9673 19.909 84.5137 22.4374 87.6968 22.4374C88.6518 22.4374 89.6597 22.174 90.5085 21.6999C91.0391 21.3839 91.1982 20.7518 90.933 20.225C90.6146 19.6983 89.978 19.5403 89.4475 19.8036C88.917 20.1197 88.3334 20.2777 87.6968 20.2777C85.9461 20.2777 84.5137 19.0135 84.1954 17.3806H92.3123C92.3653 17.3806 92.3653 17.3806 92.4184 17.3806C93.002 17.3279 93.4264 16.8012 93.3733 16.2217C93.055 13.2192 90.6146 11.0596 87.6968 11.0596ZM87.6968 13.2192C89.1823 13.2192 90.5085 14.1674 90.986 15.4843H84.3546C84.8851 14.1147 86.1583 13.2192 87.6968 13.2192Z" fill="#FF6050"/>
<path d="M46.3682 13.2182C47.217 13.2182 48.0659 13.5343 48.7025 14.061C49.1269 14.4297 49.8165 14.4297 50.241 13.9557C50.6123 13.5343 50.6123 12.8495 50.1349 12.4281C49.0738 11.5326 47.7475 11.0059 46.3682 11.0059C43.2382 11.0059 40.6387 13.5343 40.6387 16.6948C40.6387 19.8553 43.1851 22.3837 46.3682 22.3837C47.7475 22.3837 49.0738 21.9096 50.1349 20.9614C50.5593 20.5927 50.6123 19.9079 50.241 19.4339C49.8696 19.0125 49.1799 18.9598 48.7025 19.3285C48.0659 19.9079 47.217 20.1713 46.3682 20.1713C44.4053 20.1713 42.8138 18.5911 42.8138 16.6421C42.8138 14.6931 44.4053 13.2182 46.3682 13.2182Z" fill="#FF6050"/>
<path d="M109.873 11.0596C109.289 11.0596 108.812 11.5336 108.812 12.1131V21.2785C108.812 21.858 109.289 22.332 109.873 22.332C110.457 22.332 110.934 21.858 110.934 21.2785V12.1131C110.934 11.5336 110.457 11.0596 109.873 11.0596Z" fill="#FF6050"/>
<path d="M119.263 11.0596C117.937 11.0596 116.717 11.5336 115.709 12.2711V12.1131C115.709 11.5336 115.232 11.0596 114.648 11.0596C114.064 11.0596 113.587 11.5336 113.587 12.1131V21.2785C113.587 21.858 114.064 22.332 114.648 22.332C115.232 22.332 115.709 21.858 115.709 21.2785V16.6958C115.709 14.7468 117.301 13.1666 119.263 13.1666C121.226 13.1666 122.818 14.7468 122.818 16.6958V21.2785C122.818 21.858 123.295 22.332 123.879 22.332C124.462 22.332 124.94 21.858 124.94 21.2785V16.6958C124.94 13.588 122.393 11.0596 119.263 11.0596Z" fill="#FF6050"/>
<path d="M58.9943 11.0591C57.6149 11.2171 56.1295 11.7439 54.9624 12.7974V12.1653C54.9624 11.5859 54.4849 11.1118 53.9014 11.1118C53.3178 11.1118 52.8403 11.5859 52.8403 12.1653V21.3308C52.8403 21.9102 53.3178 22.3843 53.9014 22.3843C54.4849 22.3843 54.9624 21.9102 54.9624 21.3308V18.0122C54.9624 14.7991 57.1905 13.4295 59.2065 13.2188C59.7901 13.1661 60.2145 12.6394 60.1614 12.0599C60.1084 11.4278 59.5778 11.0064 58.9943 11.0591Z" fill="#FF6050"/>
<path d="M100.96 11.0591C99.7399 11.0591 98.5728 11.4278 97.6709 12.1126V8.21463C97.6709 7.63521 97.1934 7.16113 96.6099 7.16113C96.0263 7.16113 95.5488 7.63521 95.5488 8.21463V21.3307C95.5488 21.9102 96.0263 22.3842 96.6099 22.3842C97.1934 22.3842 97.6709 21.9102 97.6709 21.3307C98.6258 21.9628 99.7399 22.3842 100.96 22.3842C104.09 22.3842 106.69 19.8558 106.69 16.6953C106.69 13.5348 104.09 11.0591 100.96 11.0591ZM100.96 20.2246C98.9972 20.2246 97.4056 18.6443 97.4056 16.6953C97.4056 14.7463 98.9972 13.1661 100.96 13.1661C102.923 13.1661 104.515 14.7463 104.515 16.6953C104.515 18.6443 102.923 20.2246 100.96 20.2246Z" fill="#FF6050"/>
<path d="M138.256 8.21463C138.256 7.63521 137.779 7.16113 137.195 7.16113C136.611 7.16113 136.134 7.63521 136.134 8.21463V12.1126C135.179 11.4805 134.065 11.0591 132.845 11.0591C129.715 11.0591 127.115 13.5875 127.115 16.748C127.115 19.9085 129.662 22.4369 132.845 22.4369C134.065 22.4369 135.232 22.0682 136.134 21.3834C136.134 21.9628 136.611 22.4369 137.195 22.4369C137.779 22.4369 138.256 21.9628 138.256 21.3834V8.21463ZM132.792 20.2245C130.829 20.2245 129.237 18.6443 129.237 16.6953C129.237 14.7463 130.829 13.1661 132.792 13.1661C134.755 13.1661 136.346 14.7463 136.346 16.6953C136.346 18.6443 134.755 20.2245 132.792 20.2245Z" fill="#FF6050"/>
<path d="M72.2575 12.1131C72.2575 11.5336 71.78 11.0596 71.1964 11.0596C70.6129 11.0596 70.1354 11.5336 70.1354 12.1131C69.1805 11.481 68.0664 11.0596 66.8462 11.0596C63.7162 11.0596 61.1167 13.588 61.1167 16.7485C61.1167 19.909 63.6632 22.4374 66.8462 22.4374C68.0664 22.4374 69.2335 22.0687 70.1354 21.3839C70.1354 21.9633 70.6129 22.4374 71.1964 22.4374C71.78 22.4374 72.2575 21.9633 72.2575 21.3839V12.1131ZM66.7932 20.225C64.8303 20.225 63.2388 18.6448 63.2388 16.6958C63.2388 14.7468 64.8303 13.1666 66.7932 13.1666C68.7561 13.1666 70.3476 14.7468 70.3476 16.6958C70.3476 18.6448 68.7561 20.225 66.7932 20.225Z" fill="#FF6050"/>
<path d="M79.42 20.2243C77.8285 20.2243 77.0327 19.2762 77.0327 17.3799V14.2194H79.42C80.0036 14.2194 80.481 13.7453 80.481 13.1659C80.481 12.5864 80.0036 12.1124 79.42 12.1124H77.0327V9.74198C77.0327 9.16255 76.5552 8.68848 75.9717 8.68848C75.3881 8.68848 74.9106 9.16255 74.9106 9.74198V17.4325C74.9106 21.1198 77.298 22.4367 79.4731 22.4367C80.0566 22.4367 80.5341 21.9626 80.5341 21.3832C80.481 20.6984 80.0036 20.2243 79.42 20.2243Z" fill="#FF6050"/>
</svg>
