<?xml version="1.0" encoding="UTF-8" standalone="no"?>
<svg
   xmlns:dc="http://purl.org/dc/elements/1.1/"
   xmlns:cc="http://creativecommons.org/ns#"
   xmlns:rdf="http://www.w3.org/1999/02/22-rdf-syntax-ns#"
   xmlns:svg="http://www.w3.org/2000/svg"
   xmlns="http://www.w3.org/2000/svg"
   xmlns:xlink="http://www.w3.org/1999/xlink"
   xmlns:sodipodi="http://sodipodi.sourceforge.net/DTD/sodipodi-0.dtd"
   xmlns:inkscape="http://www.inkscape.org/namespaces/inkscape"
   width="40"
   height="40"
   viewBox="0.1 0 40 40"
   version="1.1"
   id="svg162"
   sodipodi:docname="magmalabs-min.svg"
   inkscape:version="1.0.2 (e86c8708, 2021-01-15)">
  <metadata
     id="metadata166">
    <rdf:RDF>
      <cc:Work
         rdf:about="">
        <dc:format>image/svg+xml</dc:format>
        <dc:type
           rdf:resource="http://purl.org/dc/dcmitype/StillImage" />
        <dc:title></dc:title>
      </cc:Work>
    </rdf:RDF>
  </metadata>
  <sodipodi:namedview
     pagecolor="#ffffff"
     bordercolor="#666666"
     borderopacity="1"
     objecttolerance="10"
     gridtolerance="10"
     guidetolerance="10"
     inkscape:pageopacity="0"
     inkscape:pageshadow="2"
     inkscape:window-width="1920"
     inkscape:window-height="1035"
     id="namedview164"
     showgrid="true"
     showguides="true"
     inkscape:guide-bbox="true"
     inkscape:zoom="18.890929"
     inkscape:cx="20.182602"
     inkscape:cy="19.529019"
     inkscape:window-x="0"
     inkscape:window-y="23"
     inkscape:window-maximized="0"
     inkscape:current-layer="layer1">
    <inkscape:grid
       type="xygrid"
       id="grid228" />
    <sodipodi:guide
       position="20,0"
       orientation="1,0"
       id="guide241" />
    <sodipodi:guide
       position="26,20"
       orientation="0,-1"
       id="guide243" />
  </sodipodi:namedview>
  <defs
     id="defs125">
    <path
       id="403mr2fvsa"
       d="M 0.473,0.258 H 15.987 V 22.5 H 0.473 Z" />
    <path
       id="01b1yp57jc"
       d="M 0,0.061 H 16.651 V 22.776 H 0 Z" />
    <path
       id="2rbj9qpvte"
       d="M 0.305,0.203 H 7.444 V 12.044 H 0.305 Z" />
  </defs>
  <g
     inkscape:groupmode="layer"
     id="layer2"
     inkscape:label="bg 1"
     sodipodi:insensitive="true"
     style="display:none">
    <rect
       style="fill:#b3b3b3"
       id="rect189"
       width="207.76068"
       height="41.082623"
       x="-0.58689457"
       y="-0.39126307" />
  </g>
  <g
     inkscape:groupmode="layer"
     id="layer1"
     inkscape:label="bg"
     style="opacity:0.999">
    <g
       fill="none"
       fill-rule="evenodd"
       id="g160"
       transform="translate(0.75080638,2.5287745)"
       sodipodi:insensitive="true">
      <g
         transform="translate(88.5,17.297)"
         id="g134">
        <mask
           id="ce0b31827b"
           fill="#ffffff">
          <use
             xlink:href="#403mr2fvsa"
             id="use129"
             x="0"
             y="0"
             width="100%"
             height="100%" />
        </mask>
      </g>
      <g
         transform="translate(0,11.297)"
         id="g143">
        <mask
           id="ejucd5gp8d"
           fill="#ffffff">
          <use
             xlink:href="#01b1yp57jc"
             id="use138"
             x="0"
             y="0"
             width="100%"
             height="100%" />
        </mask>
      </g>
      <g
         transform="translate(15.5,0.297)"
         id="g154">
        <mask
           id="uym5sp2j4f"
           fill="#ffffff">
          <use
             xlink:href="#2rbj9qpvte"
             id="use149"
             x="0"
             y="0"
             width="100%"
             height="100%" />
        </mask>
        <g
           id="g237">
          <path
             fill="#ff5c5c"
             d="M 12.63,0.322 0.07,21.992 c -0.202,0.348 0.05,0.784 0.452,0.784 H 6.48 c 0.372,0 0.718,-0.199 0.904,-0.521 L 16.512,6.505 C 16.7,6.182 16.7,5.782 16.512,5.458 L 13.534,0.322 c -0.202,-0.348 -0.703,-0.348 -0.905,0"
             mask="url(#ejucd5gp8d)"
             id="path141"
             transform="translate(-15.5,11)" />
          <path
             fill="#cb3737"
             d="m 31.508,22.477 -2.977,5.136 c -0.187,0.324 -0.187,0.724 0,1.048 l 2.84,4.9 c 0.187,0.322 0.531,0.52 0.904,0.52 l 5.956,10e-4 c 0.403,0 0.654,-0.436 0.452,-0.784 l -6.27,-10.821 c -0.202,-0.347 -0.704,-0.347 -0.905,0"
             id="path145"
             transform="translate(-15.5,-0.297)" />
          <path
             fill="#f84848"
             d="m 25.215,11.619 -9.27,15.994 c -0.187,0.324 -0.187,0.724 0,1.048 l 2.977,5.136 c 0.201,0.347 0.703,0.347 0.905,0 l 9.269,-15.994 c 0.188,-0.324 0.188,-0.724 0,-1.048 l -2.977,-5.136 c -0.201,-0.348 -0.703,-0.348 -0.904,0"
             id="path147"
             transform="translate(-15.5,-0.297)" />
          <path
             fill="#cb3737"
             d="M 7.303,5.6 4.327,0.462 C 4.125,0.115 3.624,0.115 3.422,0.462 L 0.446,5.6 c -0.188,0.324 -0.188,0.724 0,1.048 l 2.976,5.136 c 0.202,0.348 0.703,0.348 0.905,0 L 7.303,6.648 C 7.491,6.324 7.491,5.924 7.303,5.6"
             mask="url(#uym5sp2j4f)"
             id="path152" />
        </g>
      </g>
    </g>
  </g>
</svg>
